<svg width="12" height="24" viewBox="0 0 12 24" fill="none" xmlns="http://www.w3.org/2000/svg">
<path d="M12.463 0.173117V3.98112H10.198C10.119 3.97012 10.027 3.96412 9.93395 3.96412C9.39195 3.96412 8.89795 4.16712 8.52295 4.50212L8.52495 4.50012C8.24995 4.88412 8.08595 5.36312 8.08595 5.88112C8.08595 5.94312 8.08795 6.00512 8.09295 6.06612V6.05812V8.78412H12.322L11.762 13.0541H8.09895V24.0001H3.68195V13.0531H0.00195312V8.78412H3.68195V5.63912C3.67495 5.53712 3.67095 5.41712 3.67095 5.29712C3.67095 3.81912 4.24595 2.47512 5.18395 1.47712L5.18095 1.48012C6.15295 0.560117 7.46895 -0.00488281 8.91595 -0.00488281C9.00595 -0.00488281 9.09595 -0.00288281 9.18595 0.00211719H9.17295C9.29095 0.000117187 9.42895 -0.000882813 9.56795 -0.000882813C10.588 -0.000882813 11.593 0.0631172 12.579 0.187117L12.462 0.175117L12.463 0.173117Z" fill="#E9ECEF"/>
</svg>
