<svg width="18" height="18" viewBox="0 0 18 18" fill="none" xmlns="http://www.w3.org/2000/svg">
<path d="M13.4493 3.54984C13.2516 3.54984 13.0582 3.60849 12.8938 3.71837C12.7293 3.82825 12.6012 3.98443 12.5255 4.16715C12.4498 4.34988 12.43 4.55095 12.4686 4.74493C12.5071 4.93891 12.6024 5.11709 12.7422 5.25694C12.8821 5.3968 13.0603 5.49204 13.2543 5.53062C13.4482 5.56921 13.6493 5.5494 13.832 5.47372C14.0148 5.39803 14.1709 5.26986 14.2808 5.10541C14.3907 4.94096 14.4493 4.74762 14.4493 4.54984C14.4493 4.28462 14.344 4.03027 14.1565 3.84273C13.9689 3.65519 13.7146 3.54984 13.4493 3.54984ZM17.2827 5.5665C17.2665 4.87509 17.137 4.19101 16.8993 3.5415C16.6875 2.98578 16.3577 2.48257 15.9327 2.0665C15.52 1.63936 15.0156 1.31165 14.4577 1.10817C13.8099 0.863305 13.1251 0.730846 12.4327 0.716504C11.5493 0.666504 11.266 0.666504 8.99935 0.666504C6.73268 0.666504 6.44935 0.666504 5.56602 0.716504C4.87364 0.730846 4.1888 0.863305 3.54102 1.10817C2.98408 1.31371 2.48013 1.64114 2.06602 2.0665C1.63887 2.47915 1.31116 2.98354 1.10768 3.5415C0.862816 4.18929 0.730357 4.87413 0.716016 5.5665C0.666016 6.44984 0.666016 6.73317 0.666016 8.99984C0.666016 11.2665 0.666016 11.5498 0.716016 12.4332C0.730357 13.1255 0.862816 13.8104 1.10768 14.4582C1.31116 15.0161 1.63887 15.5205 2.06602 15.9332C2.48013 16.3585 2.98408 16.686 3.54102 16.8915C4.1888 17.1364 4.87364 17.2688 5.56602 17.2832C6.44935 17.3332 6.73268 17.3332 8.99935 17.3332C11.266 17.3332 11.5493 17.3332 12.4327 17.2832C13.1251 17.2688 13.8099 17.1364 14.4577 16.8915C15.0156 16.688 15.52 16.3603 15.9327 15.9332C16.3596 15.5187 16.6896 15.015 16.8993 14.4582C17.137 13.8087 17.2665 13.1246 17.2827 12.4332C17.2827 11.5498 17.3327 11.2665 17.3327 8.99984C17.3327 6.73317 17.3327 6.44984 17.2827 5.5665ZM15.7827 12.3332C15.7766 12.8621 15.6808 13.3863 15.4993 13.8832C15.3663 14.2458 15.1526 14.5735 14.8743 14.8415C14.6041 15.1169 14.277 15.3302 13.916 15.4665C13.4191 15.648 12.895 15.7438 12.366 15.7498C11.5327 15.7915 11.2243 15.7998 9.03268 15.7998C6.84102 15.7998 6.53268 15.7998 5.69935 15.7498C5.15009 15.7601 4.60318 15.6755 4.08268 15.4998C3.7375 15.3566 3.42548 15.1438 3.16602 14.8748C2.88942 14.6071 2.67839 14.2792 2.54935 13.9165C2.3459 13.4125 2.23305 12.8765 2.21602 12.3332C2.21602 11.4998 2.16602 11.1915 2.16602 8.99984C2.16602 6.80817 2.16602 6.49984 2.21602 5.6665C2.21975 5.12572 2.31847 4.58979 2.50768 4.08317C2.65439 3.73143 2.87957 3.41789 3.16602 3.1665C3.41919 2.87998 3.73209 2.65242 4.08268 2.49984C4.59064 2.31654 5.12601 2.22074 5.66602 2.2165C6.49935 2.2165 6.80768 2.1665 8.99935 2.1665C11.191 2.1665 11.4993 2.1665 12.3327 2.2165C12.8617 2.22257 13.3858 2.31838 13.8827 2.49984C14.2614 2.64038 14.6013 2.86888 14.8743 3.1665C15.1474 3.42249 15.3608 3.73545 15.4993 4.08317C15.6846 4.59062 15.7804 5.12632 15.7827 5.6665C15.8243 6.49984 15.8327 6.80817 15.8327 8.99984C15.8327 11.1915 15.8243 11.4998 15.7827 12.3332ZM8.99935 4.72484C8.15419 4.72648 7.32848 4.97861 6.62656 5.44935C5.92464 5.9201 5.378 6.58833 5.05571 7.36963C4.73342 8.15093 4.64995 9.01023 4.81584 9.83894C4.98174 10.6677 5.38955 11.4286 5.98775 12.0257C6.58595 12.6227 7.34769 13.029 8.17673 13.1933C9.00577 13.3576 9.8649 13.2724 10.6456 12.9486C11.4262 12.6248 12.0934 12.0769 12.5628 11.374C13.0322 10.6712 13.2827 9.845 13.2827 8.99984C13.2838 8.43742 13.1737 7.88034 12.9587 7.36063C12.7437 6.84093 12.4281 6.36884 12.0301 5.97155C11.632 5.57425 11.1593 5.25957 10.6392 5.04561C10.1191 4.83165 9.56176 4.72264 8.99935 4.72484ZM8.99935 11.7748C8.45051 11.7748 7.91399 11.6121 7.45764 11.3072C7.0013 11.0022 6.64562 10.5688 6.43558 10.0618C6.22555 9.55472 6.1706 8.99676 6.27767 8.45846C6.38474 7.92016 6.64904 7.42571 7.03713 7.03762C7.42522 6.64952 7.91968 6.38523 8.45797 6.27816C8.99627 6.17108 9.55423 6.22604 10.0613 6.43607C10.5684 6.6461 11.0018 7.00178 11.3067 7.45813C11.6116 7.91448 11.7743 8.45099 11.7743 8.99984C11.7743 9.36425 11.7026 9.72511 11.5631 10.0618C11.4237 10.3985 11.2193 10.7044 10.9616 10.9621C10.7039 11.2197 10.398 11.4241 10.0613 11.5636C9.72462 11.7031 9.36377 11.7748 8.99935 11.7748Z" fill="#E9ECEF"/>
</svg>
