<svg width="18" height="16" viewBox="0 0 18 16" fill="none" xmlns="http://www.w3.org/2000/svg">
<path d="M17.2992 15.9211V9.78413C17.2992 6.49613 15.5442 4.96613 13.2032 4.96613C11.3142 4.96613 10.4682 6.00513 9.99717 6.73413V5.21713H6.43917C6.48617 6.22213 6.43917 15.9211 6.43917 15.9211H9.99717V9.94313C9.99717 9.62413 10.0202 9.30413 10.1142 9.07613C10.3712 8.43713 10.9562 7.77513 11.9392 7.77513C13.2272 7.77513 13.7422 8.75613 13.7422 10.1951V15.9221L17.2992 15.9211ZM2.69017 3.75613C3.93017 3.75613 4.70317 2.93313 4.70317 1.90613C4.68017 0.856129 3.93017 0.0571289 2.71317 0.0571289C1.49617 0.0571289 0.701172 0.856129 0.701172 1.90613C0.701172 2.93413 1.47317 3.75613 2.66817 3.75613H2.69017ZM4.46917 15.9211V5.21713H0.912172V15.9211H4.46917Z" fill="#E9ECEF"/>
</svg>
