<svg width="18" height="14" viewBox="0 0 18 14" fill="none" xmlns="http://www.w3.org/2000/svg">
<path d="M17.3327 1.83351C16.7063 2.10525 16.0439 2.28489 15.366 2.36684C16.0812 1.93961 16.6171 1.26749 16.8743 0.475175C16.2023 0.875227 15.4667 1.15709 14.6993 1.30851C14.1865 0.752318 13.5035 0.382088 12.7575 0.255884C12.0116 0.12968 11.2448 0.25464 10.5775 0.611166C9.91021 0.967692 9.38013 1.53562 9.07038 2.22587C8.76064 2.91613 8.68876 3.68967 8.86602 4.42517C7.5072 4.35645 6.17805 4.00264 4.96489 3.38673C3.75174 2.77082 2.68172 1.90659 1.82435 0.850175C1.52363 1.37532 1.36561 1.97003 1.36602 2.57517C1.36495 3.13716 1.50286 3.69069 1.76748 4.18648C2.03209 4.68227 2.4152 5.10493 2.88268 5.41684C2.33933 5.40206 1.80759 5.25626 1.33268 4.99184V5.03351C1.33675 5.82092 1.61268 6.58275 2.11378 7.19015C2.61488 7.79754 3.3104 8.21321 4.08268 8.36684C3.7854 8.45731 3.47674 8.50501 3.16602 8.50851C2.95092 8.506 2.73637 8.48649 2.52435 8.45018C2.74427 9.12752 3.16987 9.71946 3.74191 10.1436C4.31395 10.5678 5.004 10.8031 5.71602 10.8168C4.51368 11.7629 3.02925 12.2792 1.49935 12.2835C1.22079 12.2844 0.942462 12.2677 0.666016 12.2335C2.22804 13.2421 4.04836 13.7774 5.90768 13.7752C7.19076 13.7885 8.46363 13.546 9.65195 13.0619C10.8403 12.5778 11.9202 11.8617 12.8287 10.9556C13.7372 10.0494 14.456 8.97133 14.9431 7.78426C15.4303 6.59719 15.676 5.32495 15.666 4.04184C15.666 3.90017 15.666 3.75017 15.666 3.60017C16.3199 3.11252 16.8839 2.5147 17.3327 1.83351Z" fill="#E9ECEF"/>
</svg>
