<svg width="384" height="60" viewBox="0 0 384 60" fill="none" xmlns="http://www.w3.org/2000/svg">
<path fill-rule="evenodd" clip-rule="evenodd" d="M163.121 45.6593L142.427 26.1729H133.011V45.6593H126.148V0H150.354C152.942 0 155.372 0.297178 157.642 0.891535C159.911 1.46467 161.897 2.26068 163.6 3.27958C165.302 4.29847 166.632 5.4978 167.59 6.87756C168.583 8.23609 169.079 9.69014 169.079 11.2397V14.9332C169.079 16.4828 168.583 17.9475 167.59 19.3272C166.632 20.6857 165.302 21.8745 163.6 22.8933C161.897 23.9122 159.911 24.7189 157.642 25.3132C155.372 25.8864 152.942 26.1729 150.354 26.1729L171.048 45.6593H163.121ZM162.217 11.2397C162.217 10.2208 161.897 9.27621 161.259 8.4059C160.621 7.51437 159.752 6.73958 158.652 6.08154C157.553 5.40228 156.258 4.8716 154.769 4.48952C153.315 4.10743 151.737 3.91639 150.034 3.91639H133.011V22.2565H150.034C151.737 22.2565 153.315 22.0655 154.769 21.6834C156.258 21.3013 157.553 20.7813 158.652 20.1232C159.752 19.444 160.621 18.6692 161.259 17.7989C161.897 16.9073 162.217 15.9521 162.217 14.9332V11.2397Z" fill="#006FEE"/>
<path fill-rule="evenodd" clip-rule="evenodd" d="M212.946 36.7121C212.946 38.0282 212.521 39.27 211.669 40.4375C210.854 41.605 209.719 42.6239 208.265 43.4942C206.811 44.3645 205.108 45.0544 203.158 45.5638C201.207 46.052 199.132 46.2962 196.934 46.2962H192.571C190.373 46.2962 188.298 46.052 186.347 45.5638C184.397 45.0544 182.694 44.3645 181.24 43.4942C179.786 42.6239 178.634 41.605 177.782 40.4375C176.967 39.27 176.559 38.0282 176.559 36.7121V22.0018C176.559 20.6857 176.967 19.444 177.782 18.2765C178.634 17.109 179.786 16.0901 181.24 15.2198C182.694 14.3495 184.397 13.6702 186.347 13.182C188.298 12.6725 190.373 12.4178 192.571 12.4178H196.934C199.132 12.4178 201.207 12.6725 203.158 13.182C205.108 13.6702 206.811 14.3495 208.265 15.2198C209.719 16.0901 210.854 17.109 211.669 18.2765C212.521 19.444 212.946 20.6857 212.946 22.0018V36.7121ZM206.403 21.7789C206.403 20.9935 206.155 20.2612 205.658 19.5819C205.162 18.8814 204.488 18.2765 203.637 17.767C202.785 17.2576 201.775 16.8543 200.604 16.5571C199.469 16.2599 198.246 16.1113 196.934 16.1113H192.571C191.259 16.1113 190.018 16.2599 188.848 16.5571C187.713 16.8543 186.72 17.2576 185.868 17.767C185.017 18.2765 184.343 18.8814 183.847 19.5819C183.35 20.2612 183.102 20.9935 183.102 21.7789V36.935C183.102 37.7204 183.35 38.4634 183.847 39.1639C184.343 39.8431 185.017 40.4375 185.868 40.9469C186.72 41.4564 187.713 41.8597 188.848 42.1569C190.018 42.4541 191.259 42.6026 192.571 42.6026H196.934C198.246 42.6026 199.469 42.4541 200.604 42.1569C201.775 41.8597 202.785 41.4564 203.637 40.9469C204.488 40.4375 205.162 39.8431 205.658 39.1639C206.155 38.4634 206.403 37.7204 206.403 36.935V21.7789Z" fill="#006FEE"/>
<path fill-rule="evenodd" clip-rule="evenodd" d="M255.696 40.4375C256.547 39.27 256.973 38.0282 256.973 36.7121V22.0018C256.973 20.6857 256.547 19.444 255.696 18.2765C254.88 17.109 253.745 16.0901 252.291 15.2198C250.837 14.3495 249.135 13.6702 247.184 13.182C245.234 12.6725 243.159 12.4178 240.96 12.4178H239.311C236.864 12.4178 234.594 12.715 232.502 13.3093C230.409 13.9037 228.618 14.7316 227.129 15.7929V0H220.585V36.7121C220.585 38.0282 220.993 39.27 221.809 40.4375C222.66 41.605 223.813 42.6239 225.267 43.4942C226.721 44.3645 228.423 45.0544 230.374 45.5638C232.324 46.052 234.399 46.2962 236.598 46.2962H240.96C243.159 46.2962 245.234 46.052 247.184 45.5638C249.135 45.0544 250.837 44.3645 252.291 43.4942C253.745 42.6239 254.88 41.605 255.696 40.4375ZM249.685 19.5819C250.181 20.2612 250.429 20.9935 250.429 21.7789V36.935C250.429 37.7204 250.181 38.4634 249.685 39.1639C249.188 39.8431 248.514 40.4375 247.663 40.9469C246.812 41.4564 245.801 41.8597 244.631 42.1569C243.496 42.4541 242.272 42.6026 240.96 42.6026H236.598C235.286 42.6026 234.045 42.4541 232.874 42.1569C231.739 41.8597 230.746 41.4564 229.895 40.9469C229.044 40.4375 228.37 39.8431 227.874 39.1639C227.377 38.4634 227.129 37.7204 227.129 36.935V21.7789C227.129 20.9935 227.377 20.2612 227.874 19.5819C228.37 18.8814 229.044 18.2765 229.895 17.767C230.746 17.2576 231.739 16.8543 232.874 16.5571C234.045 16.2599 235.286 16.1113 236.598 16.1113H240.96C242.272 16.1113 243.496 16.2599 244.631 16.5571C245.801 16.8543 246.812 17.2576 247.663 17.767C248.514 18.2765 249.188 18.8814 249.685 19.5819Z" fill="#006FEE"/>
<path fill-rule="evenodd" clip-rule="evenodd" d="M300.999 36.7121C300.999 38.0282 300.574 39.27 299.723 40.4375C298.907 41.605 297.772 42.6239 296.318 43.4942C294.864 44.3645 293.162 45.0544 291.211 45.5638C289.26 46.052 287.186 46.2962 284.987 46.2962H280.625C278.426 46.2962 276.351 46.052 274.4 45.5638C272.45 45.0544 270.748 44.3645 269.293 43.4942C267.839 42.6239 266.687 41.605 265.836 40.4375C265.02 39.27 264.612 38.0282 264.612 36.7121V22.0018C264.612 20.6857 265.02 19.444 265.836 18.2765C266.687 17.109 267.839 16.0901 269.293 15.2198C270.748 14.3495 272.45 13.6702 274.4 13.182C276.351 12.6725 278.426 12.4178 280.625 12.4178H284.987C287.186 12.4178 289.26 12.6725 291.211 13.182C293.162 13.6702 294.864 14.3495 296.318 15.2198C297.772 16.0901 298.907 17.109 299.723 18.2765C300.574 19.444 300.999 20.6857 300.999 22.0018V36.7121ZM294.456 21.7789C294.456 20.9935 294.208 20.2612 293.711 19.5819C293.215 18.8814 292.541 18.2765 291.69 17.767C290.839 17.2576 289.828 16.8543 288.658 16.5571C287.523 16.2599 286.299 16.1113 284.987 16.1113H280.625C279.312 16.1113 278.071 16.2599 276.901 16.5571C275.766 16.8543 274.773 17.2576 273.922 17.767C273.07 18.2765 272.397 18.8814 271.9 19.5819C271.404 20.2612 271.155 20.9935 271.155 21.7789V36.935C271.155 37.7204 271.404 38.4634 271.9 39.1639C272.397 39.8431 273.07 40.4375 273.922 40.9469C274.773 41.4564 275.766 41.8597 276.901 42.1569C278.071 42.4541 279.312 42.6026 280.625 42.6026H284.987C286.299 42.6026 287.523 42.4541 288.658 42.1569C289.828 41.8597 290.839 41.4564 291.69 40.9469C292.541 40.4375 293.215 39.8431 293.711 39.1639C294.208 38.4634 294.456 37.7204 294.456 36.935V21.7789Z" fill="#006FEE"/>
<path d="M322.843 44.9907C324.616 45.4365 326.495 45.6593 328.481 45.6593H334.44V41.934H328.481C327.382 41.934 326.354 41.8172 325.396 41.5837C324.438 41.329 323.605 40.9894 322.896 40.5648C322.186 40.1403 321.619 39.6521 321.193 39.1002C320.803 38.5271 320.608 37.9115 320.608 37.2534V16.78H334.44V13.0546H320.608V4.58504L314.065 5.22185V13.0546H304.276V16.78H314.065V37.0624C314.065 38.2511 314.437 39.3655 315.182 40.4056C315.962 41.4458 316.991 42.3585 318.267 43.1439C319.58 43.9293 321.105 44.5449 322.843 44.9907Z" fill="#006FEE"/>
<path d="M360.911 26.6824L376.605 45.6593H383.999L364.582 22.1929L382.882 0H375.487L360.911 17.6715L346.282 0H338.887L357.187 22.1929L337.77 45.6593H345.218L360.911 26.6824Z" fill="#006FEE"/>
<path fill-rule="evenodd" clip-rule="evenodd" d="M52.7537 0C39.7022 0 28.2897 3.0637 19.4376 6.77012C10.5996 10.4707 4.05908 14.9157 0.665723 17.9694C-0.0512075 18.6146 -0.198765 19.4282 0.270179 20.1504L17.6437 46.907L7.29678 57.6162L14.184 60L25.4866 48.3015C26.0908 47.6762 26.1879 46.9205 25.7508 46.2472L8.4571 19.6135C11.6022 17.0671 16.9748 13.6126 23.9981 10.6719C31.9706 7.33377 41.8147 4.76179 52.7537 4.76179C63.0927 4.76179 70.6094 6.35501 76.0997 8.78853C81.6159 11.2335 85.3866 14.6607 87.8258 18.6145C92.3029 25.8718 92.098 34.6049 90.2834 41.0905H55.53L49.6175 31.4596C53.7605 29.6961 56.4863 26.8419 56.4863 23.5709C56.4863 18.109 48.8862 13.8092 39.7791 13.8092C30.6719 13.8092 23.0719 18.109 23.0719 23.5709C23.0719 29.0328 30.6719 33.3325 39.7791 33.3325C40.6092 33.3325 41.4267 33.2968 42.2271 33.2278L49.0198 44.2926C49.595 45.2296 51.0858 45.8523 52.7537 45.8523H93.5807C95.4619 45.8523 97.0858 45.0636 97.4733 43.9619C99.9698 36.8639 100.922 26.0968 95.2891 16.9651C92.4472 12.3585 87.872 8.08115 80.8344 4.96181C73.771 1.83099 64.5262 0 52.7537 0ZM31.0277 23.5709C31.0277 20.8802 34.8258 18.571 39.7791 18.571C44.7323 18.571 48.5305 20.8802 48.5305 23.5709C48.5305 26.2615 44.7323 28.5707 39.7791 28.5707C34.8258 28.5707 31.0277 26.2615 31.0277 23.5709Z" fill="#006FEE"/>
</svg>
