<svg width="398" height="60" viewBox="0 0 398 60" fill="none" xmlns="http://www.w3.org/2000/svg">
<path d="M50.1433 60H14.7671L50.1433 30.4761H85.5195L50.1433 60Z" fill="#F5A524"/>
<path d="M37.2 0H73.439L37.2 30.4763H0.960938L37.2 0Z" fill="#F5A524"/>
<path d="M157.689 25.6842C157.689 27.4948 156.898 29.1922 155.316 30.7764C153.793 32.3607 151.362 33.6378 148.023 34.6077C144.742 35.5777 140.583 36.0626 135.545 36.0626H125.263V49.0599H112.961V15.2088H135.545C140.29 15.2088 144.332 15.6615 147.671 16.5668C151.011 17.472 153.5 18.7168 155.141 20.301C156.84 21.8853 157.689 23.6797 157.689 25.6842ZM135.017 30.5825C138.415 30.5825 140.934 30.1621 142.575 29.3215C144.215 28.4486 145.035 27.2361 145.035 25.6842C145.035 22.3864 141.696 20.7375 135.017 20.7375H125.263V30.5825H135.017Z" fill="#F5A524"/>
<path d="M175.211 26.3632C176.793 24.9406 178.843 23.8252 181.362 23.0169C183.94 22.2086 186.869 21.8045 190.15 21.8045V28.9335H186.898C183.032 28.9335 180.103 29.4347 178.111 30.437C176.178 31.4392 175.211 33.1851 175.211 35.6747V49.0599H162.909V22.1924H175.211V26.3632Z" fill="#F5A524"/>
<path d="M216.538 49.4964C211.851 49.4964 207.633 48.9306 203.884 47.799C200.135 46.635 197.176 45.0023 195.009 42.9007C192.9 40.7992 191.845 38.3743 191.845 35.6262C191.845 32.878 192.929 30.4531 195.097 28.3516C197.323 26.25 200.34 24.6335 204.148 23.5019C207.956 22.3379 212.203 21.756 216.889 21.756C221.576 21.756 225.823 22.3379 229.631 23.5019C233.439 24.6335 236.427 26.25 238.594 28.3516C240.821 30.4531 241.934 32.878 241.934 35.6262C241.934 38.3743 240.791 40.7992 238.507 42.9007C236.28 45.0023 233.234 46.635 229.368 47.799C225.56 48.9306 221.283 49.4964 216.538 49.4964ZM216.538 43.5797C218.764 43.5797 220.844 43.2887 222.777 42.7067C224.769 42.0925 226.351 41.1872 227.522 39.9909C228.694 38.7946 229.28 37.3397 229.28 35.6262C229.28 33.072 228.05 31.1159 225.589 29.758C223.187 28.3677 220.229 27.6726 216.714 27.6726C213.199 27.6726 210.24 28.3677 207.838 29.758C205.495 31.1159 204.323 33.072 204.323 35.6262C204.323 38.1803 205.466 40.1526 207.751 41.5428C210.094 42.9007 213.023 43.5797 216.538 43.5797Z" fill="#F5A524"/>
<path d="M259.745 43.6767H272.956V49.0599H247.443V11.0381H259.745V43.6767Z" fill="#F5A524"/>
<path d="M282.5 18.9916C280.332 18.9916 278.516 18.6198 277.052 17.8762C275.646 17.1002 274.943 16.1465 274.943 15.0149C274.943 13.8833 275.646 12.9456 277.052 12.202C278.516 11.4261 280.332 11.0381 282.5 11.0381C284.668 11.0381 286.454 11.4261 287.86 12.202C289.325 12.9456 290.057 13.8833 290.057 15.0149C290.057 16.1465 289.325 17.1002 287.86 17.8762C286.454 18.6198 284.668 18.9916 282.5 18.9916ZM288.563 22.1924V49.0599H276.261V22.1924H288.563Z" fill="#F5A524"/>
<path d="M324.181 21.8045C329.98 21.8045 334.667 22.8229 338.24 24.8598C341.814 26.8643 343.601 29.6772 343.601 33.2983V49.0599H331.298V34.2197C331.298 32.0859 330.332 30.4531 328.399 29.3215C326.465 28.1576 323.829 27.5756 320.49 27.5756C317.092 27.5756 314.397 28.1576 312.405 29.3215C310.472 30.4531 309.506 32.0859 309.506 34.2197V49.0599H297.203V22.1924H309.506V25.5387C311.146 24.3748 313.226 23.4695 315.745 22.8229C318.322 22.1439 321.134 21.8045 324.181 21.8045Z" fill="#F5A524"/>
<path d="M397.04 35.0442C397.04 36.0141 396.923 36.8871 396.689 37.663H361.099C361.392 39.6029 362.623 41.1225 364.79 42.2218C366.958 43.321 369.623 43.8707 372.787 43.8707C377.356 43.8707 380.608 42.7876 382.541 40.6214H395.81C394.404 43.2079 391.709 45.3418 387.725 47.023C383.742 48.6719 378.85 49.4964 373.05 49.4964C368.364 49.4964 364.146 48.9306 360.396 47.799C356.706 46.635 353.806 45.0023 351.697 42.9007C349.646 40.7992 348.621 38.3743 348.621 35.6262C348.621 32.8457 349.646 30.4046 351.697 28.3031C353.747 26.2015 356.618 24.585 360.309 23.4534C363.999 22.3218 368.247 21.756 373.05 21.756C377.678 21.756 381.808 22.3056 385.441 23.4049C389.131 24.5041 391.973 26.0722 393.964 28.1091C396.015 30.1136 397.04 32.4253 397.04 35.0442ZM384.298 33.1043C384.24 31.3584 383.097 29.9682 380.871 28.9335C378.645 27.8666 375.921 27.3331 372.699 27.3331C369.653 27.3331 367.075 27.8504 364.966 28.885C362.916 29.8873 361.656 31.2937 361.187 33.1043H384.298Z" fill="#F5A524"/>
</svg>
