<svg width="316" height="60" viewBox="0 0 316 60" fill="none" xmlns="http://www.w3.org/2000/svg">
<path d="M23.6709 44.0212H61.7042V53.3856C61.7042 57.0387 58.7428 60.0001 55.0897 60.0001H30.2854C26.6323 60.0001 23.6709 57.0387 23.6709 53.3856V44.0212Z" fill="#033EA9"/>
<path fill-rule="evenodd" clip-rule="evenodd" d="M33.5713 0.618096C24.5152 1.98844 16.5353 5.55944 10.6865 10.5471C10.6863 10.547 10.6867 10.5472 10.6865 10.5471C4.35544 15.9459 0.520508 23.0042 0.520508 30.7286V31.8007C0.520833 31.8002 0.521159 31.7998 0.521484 31.7993V32.9261C0.521484 33.1682 0.521484 33.2892 0.524763 33.3916C0.671804 37.983 5.64435 41.6791 11.8214 41.7884C11.9591 41.7908 12.1219 41.7908 12.4476 41.7908H71.2764C71.6021 41.7908 71.7649 41.7908 71.9027 41.7884C78.0797 41.6791 83.0522 37.983 83.1993 33.3916C83.2025 33.2892 83.2025 33.1682 83.2025 32.9261V30.7286C83.2025 13.7577 64.6938 0 41.862 0C39.0228 0 36.2495 0.212888 33.5713 0.618096C33.5713 0.618145 33.5713 0.618047 33.5713 0.618096ZM33.3662 3.16625C32.1339 8.35211 26.0414 12.2913 18.711 12.2913C16.9802 12.2913 15.3184 12.0717 13.7733 11.6679C18.9023 7.49426 25.6925 4.46769 33.3662 3.16625ZM53.8726 3.89683C55.4785 8.7176 61.3375 12.2913 68.3195 12.2913C69.0778 12.2913 69.8229 12.2492 70.5507 12.1678C66.1342 8.39939 60.3958 5.50932 53.8726 3.89683ZM79.7848 28.5571C77.1651 26.848 73.7312 25.8118 69.9717 25.8118C61.7523 25.8118 55.0891 30.7646 55.0891 36.8741C55.0891 37.7191 55.2166 38.5419 55.4579 39.3326H71.2764C71.6211 39.3326 71.7355 39.3324 71.824 39.3308C76.2361 39.2528 79.7879 36.6127 79.893 33.3331C79.8951 33.2674 79.8953 33.1824 79.8953 32.9261V30.7286C79.8953 29.9979 79.858 29.2738 79.7848 28.5571ZM28.2629 39.3326C28.5043 38.5419 28.6317 37.7191 28.6317 36.8741C28.6317 30.7646 21.9686 25.8118 13.7491 25.8118C9.99127 25.8118 6.55871 26.8471 3.93949 28.5548C3.86609 29.2723 3.82873 29.9972 3.82873 30.7286V32.9261C3.82873 33.1823 3.82896 33.2674 3.83107 33.3331C3.9361 36.6127 7.48792 39.2528 11.9001 39.3308C11.9885 39.3324 12.1029 39.3326 12.4476 39.3326H28.2629ZM56.7439 20.8954C56.7439 27.0049 50.0807 31.9576 41.8613 31.9576C33.6419 31.9576 26.9787 27.0049 26.9787 20.8954C26.9787 14.7858 33.6419 9.83308 41.8613 9.83308C50.0807 9.83308 56.7439 14.7858 56.7439 20.8954Z" fill="#033EA9"/>
<path d="M107.918 46.0848V9.87891H116.577V46.0848H107.918Z" fill="#033EA9"/>
<path d="M138.347 46.6882C134.964 46.6882 131.965 46.1519 129.349 45.0791C126.734 44.0063 124.681 42.4977 123.193 40.5534C121.705 38.609 120.961 36.3629 120.961 33.815C120.961 31.2337 121.682 28.9373 123.125 26.9259C124.614 24.9144 126.643 23.3555 129.214 22.2493C131.83 21.1094 134.897 20.5395 138.415 20.5395C141.707 20.5395 144.616 21.0759 147.142 22.1487C149.668 23.2214 151.629 24.6965 153.028 26.5739C154.471 28.4177 155.192 30.4794 155.192 32.759C155.192 33.1278 155.17 33.5133 155.125 33.9156C155.125 34.3179 155.102 34.7369 155.057 35.1728H129.552C129.733 37.1171 130.635 38.6425 132.258 39.7488C133.927 40.8551 135.934 41.4082 138.279 41.4082C140.038 41.4082 141.504 41.1233 142.677 40.5534C143.895 39.9499 144.797 39.1789 145.383 38.2402H154.178C153.546 39.8158 152.486 41.2574 150.998 42.5648C149.555 43.8387 147.751 44.8444 145.586 45.5819C143.466 46.3195 141.053 46.6882 138.347 46.6882ZM138.415 25.7693C136.295 25.7693 134.423 26.2218 132.8 27.127C131.176 27.9986 130.139 29.3396 129.688 31.1499H146.398C146.262 29.5072 145.451 28.1998 143.962 27.2276C142.474 26.2554 140.625 25.7693 138.415 25.7693Z" fill="#033EA9"/>
<path d="M166.837 46.0848L154.524 21.143H163.59L172.114 40.0002L180.638 21.143H189.703L177.323 46.0848H166.837Z" fill="#033EA9"/>
<path d="M206.435 46.6882C203.053 46.6882 200.053 46.1519 197.437 45.0791C194.822 44.0063 192.769 42.4977 191.281 40.5534C189.793 38.609 189.049 36.3629 189.049 33.815C189.049 31.2337 189.77 28.9373 191.213 26.9259C192.702 24.9144 194.731 23.3555 197.302 22.2493C199.918 21.1094 202.985 20.5395 206.503 20.5395C209.795 20.5395 212.704 21.0759 215.23 22.1487C217.756 23.2214 219.717 24.6965 221.116 26.5739C222.559 28.4177 223.28 30.4794 223.28 32.759C223.28 33.1278 223.258 33.5133 223.213 33.9156C223.213 34.3179 223.19 34.7369 223.145 35.1728H197.64C197.821 37.1171 198.723 38.6425 200.346 39.7488C202.015 40.8551 204.022 41.4082 206.367 41.4082C208.126 41.4082 209.592 41.1233 210.765 40.5534C211.983 39.9499 212.885 39.1789 213.471 38.2402H222.266C221.634 39.8158 220.574 41.2574 219.086 42.5648C217.643 43.8387 215.839 44.8444 213.674 45.5819C211.554 46.3195 209.141 46.6882 206.435 46.6882ZM206.503 25.7693C204.383 25.7693 202.511 26.2218 200.888 27.127C199.264 27.9986 198.227 29.3396 197.776 31.1499H214.486C214.35 29.5072 213.539 28.1998 212.05 27.2276C210.562 26.2554 208.713 25.7693 206.503 25.7693Z" fill="#033EA9"/>
<path d="M227.181 46.0848V9.87891H235.84V46.0848H227.181Z" fill="#033EA9"/>
<path d="M253.889 46.6882C249.695 46.6882 246.448 45.716 244.147 43.7717C241.892 41.8273 240.765 38.9777 240.765 35.223V21.143H249.357V34.6196C249.357 36.7651 249.943 38.4078 251.116 39.5476C252.288 40.6874 254.137 41.2574 256.663 41.2574C259.053 41.2574 261.015 40.6204 262.549 39.3465C264.127 38.0726 264.917 36.2958 264.917 34.0162V21.143H273.576V46.0848H265.931L265.255 41.8608C264.217 43.3358 262.707 44.5092 260.722 45.3808C258.783 46.2524 256.505 46.6882 253.889 46.6882Z" fill="#033EA9"/>
<path d="M279.083 57.1477V21.143H286.795L287.742 24.7133C288.825 23.607 290.245 22.6348 292.004 21.7967C293.808 20.9586 296.131 20.5395 298.972 20.5395C302.13 20.5395 304.948 21.1094 307.429 22.2493C309.91 23.3891 311.871 24.9479 313.315 26.9259C314.758 28.9038 315.48 31.1499 315.48 33.6642C315.48 36.1785 314.758 38.4246 313.315 40.4025C311.871 42.3469 309.91 43.889 307.429 45.0288C304.948 46.1351 302.13 46.6882 298.972 46.6882C296.447 46.6882 294.237 46.3362 292.343 45.6322C290.448 44.9282 288.915 43.9393 287.742 42.6654V57.1477H279.083ZM297.146 41.0562C299.897 41.0562 302.175 40.369 303.979 38.9945C305.783 37.62 306.685 35.8432 306.685 33.6642C306.685 31.4851 305.783 29.6916 303.979 28.2836C302.175 26.8756 299.897 26.1716 297.146 26.1716C294.35 26.1716 292.049 26.8756 290.245 28.2836C288.486 29.6581 287.607 31.4348 287.607 33.6139C287.607 35.7929 288.486 37.5865 290.245 38.9945C292.049 40.369 294.35 41.0562 297.146 41.0562Z" fill="#033EA9"/>
</svg>
