<svg width="356" height="60" viewBox="0 0 356 60" fill="none" xmlns="http://www.w3.org/2000/svg">
<path d="M132.413 46.7234C126.788 46.7234 121.873 45.766 117.669 43.8511C113.464 41.9362 110.197 39.2766 107.867 35.8723C105.538 32.4255 104.373 28.4255 104.373 23.8723C104.373 19.2766 105.566 15.234 107.953 11.7447C110.396 8.21277 113.833 5.46809 118.265 3.51064C122.754 1.51064 128.066 0.510639 134.203 0.510639C141.192 0.510639 146.987 1.76596 151.589 4.27659C156.192 6.78723 159.175 10.2553 160.538 14.6808H148.351C147.442 12.5957 145.794 10.9787 143.408 9.82978C141.021 8.6383 137.953 8.04255 134.203 8.04255C128.237 8.04255 123.635 9.46808 120.396 12.3191C117.157 15.1277 115.538 19 115.538 23.9362C115.538 28.8723 117.129 32.7021 120.311 35.4255C123.549 38.1064 127.924 39.4468 133.436 39.4468C138.834 39.4468 142.896 38.3617 145.624 36.1915C148.408 33.9787 150.084 31.0851 150.652 27.5106H135.567V21.383H161.646V45.9574H151.589L150.737 40.0851C148.805 42.2128 146.391 43.8511 143.493 45C140.595 46.1489 136.902 46.7234 132.413 46.7234Z" fill="#EA4335"/>
<path d="M167.735 45.9574V0H178.644V45.9574H167.735Z" fill="#EA4335"/>
<path d="M205.814 46.7234C201.723 46.7234 198.03 46.0213 194.734 44.617C191.496 43.2128 188.91 41.2766 186.979 38.8085C185.103 36.2979 184.166 33.4043 184.166 30.1277C184.166 26.8511 185.132 23.9787 187.064 21.5106C188.996 19 191.581 17.0426 194.82 15.6383C198.115 14.234 201.808 13.5319 205.899 13.5319C209.933 13.5319 213.57 14.234 216.808 15.6383C220.104 17.0426 222.689 19 224.564 21.5106C226.496 23.9787 227.462 26.8511 227.462 30.1277C227.462 33.4043 226.496 36.2979 224.564 38.8085C222.689 41.2766 220.104 43.2128 216.808 44.617C213.513 46.0213 209.848 46.7234 205.814 46.7234ZM205.814 39.6383C208.655 39.6383 211.127 38.8511 213.229 37.2766C215.331 35.6596 216.382 33.2766 216.382 30.1277C216.382 26.9787 215.331 24.617 213.229 23.0425C211.127 21.4255 208.683 20.617 205.899 20.617C203.001 20.617 200.501 21.4255 198.399 23.0425C196.354 24.617 195.331 26.9787 195.331 30.1277C195.331 33.2766 196.354 35.6596 198.399 37.2766C200.501 38.8511 202.973 39.6383 205.814 39.6383Z" fill="#EA4335"/>
<path d="M250.426 46.7234C246.676 46.7234 243.381 46.2766 240.54 45.383C237.699 44.4468 235.426 43.1702 233.722 41.5532C232.017 39.9362 230.994 38.0638 230.653 35.9362H241.648C241.989 37.1702 242.898 38.234 244.375 39.1277C245.909 39.9787 247.869 40.4043 250.256 40.4043C252.642 40.4043 254.375 40.0425 255.455 39.3191C256.591 38.5957 257.159 37.766 257.159 36.8298C257.159 35.4681 256.364 34.5532 254.773 34.0851C253.182 33.5745 250.966 33.0851 248.125 32.617C246.307 32.3191 244.46 31.9574 242.585 31.5319C240.71 31.1064 238.977 30.5745 237.386 29.9362C235.852 29.2553 234.602 28.4043 233.636 27.383C232.67 26.3191 232.187 25.0213 232.187 23.4894C232.187 20.6809 233.665 18.3191 236.619 16.4043C239.631 14.4894 243.835 13.5319 249.233 13.5319C254.233 13.5319 258.21 14.4043 261.165 16.1489C264.176 17.8936 265.966 20.2979 266.534 23.3617H256.222C255.597 21.0213 253.239 19.8511 249.148 19.8511C247.102 19.8511 245.511 20.1489 244.375 20.7447C243.296 21.3404 242.756 22.0851 242.756 22.9787C242.756 23.9149 243.58 24.6596 245.227 25.2128C246.875 25.766 249.063 26.2766 251.79 26.7447C254.745 27.2553 257.443 27.8298 259.887 28.4681C262.387 29.0638 264.375 29.9787 265.853 31.2128C267.33 32.4043 268.069 34.1277 268.069 36.383C268.125 38.3404 267.444 40.1064 266.023 41.6809C264.603 43.2553 262.557 44.4894 259.887 45.383C257.216 46.2766 254.063 46.7234 250.426 46.7234Z" fill="#EA4335"/>
<path d="M290.943 46.7234C287.193 46.7234 283.897 46.2766 281.057 45.383C278.216 44.4468 275.943 43.1702 274.238 41.5532C272.534 39.9362 271.511 38.0638 271.17 35.9362H282.164C282.505 37.1702 283.414 38.234 284.892 39.1277C286.426 39.9787 288.386 40.4043 290.773 40.4043C293.159 40.4043 294.892 40.0425 295.971 39.3191C297.108 38.5957 297.676 37.766 297.676 36.8298C297.676 35.4681 296.881 34.5532 295.29 34.0851C293.699 33.5745 291.483 33.0851 288.642 32.617C286.824 32.3191 284.977 31.9574 283.102 31.5319C281.227 31.1064 279.494 30.5745 277.903 29.9362C276.369 29.2553 275.119 28.4043 274.153 27.383C273.187 26.3191 272.704 25.0213 272.704 23.4894C272.704 20.6809 274.181 18.3191 277.136 16.4043C280.147 14.4894 284.352 13.5319 289.75 13.5319C294.75 13.5319 298.727 14.4043 301.682 16.1489C304.693 17.8936 306.483 20.2979 307.051 23.3617H296.738C296.113 21.0213 293.756 19.8511 289.665 19.8511C287.619 19.8511 286.028 20.1489 284.892 20.7447C283.812 21.3404 283.272 22.0851 283.272 22.9787C283.272 23.9149 284.096 24.6596 285.744 25.2128C287.392 25.766 289.579 26.2766 292.307 26.7447C295.261 27.2553 297.96 27.8298 300.403 28.4681C302.903 29.0638 304.892 29.9787 306.369 31.2128C307.847 32.4043 308.585 34.1277 308.585 36.383C308.642 38.3404 307.96 40.1064 306.54 41.6809C305.119 43.2553 303.074 44.4894 300.403 45.383C297.733 46.2766 294.579 46.7234 290.943 46.7234Z" fill="#EA4335"/>
<path d="M317.025 60L326.826 43.8511H324.269L307.82 14.2979H319.667L331.514 36.5745L343.872 14.2979H355.463L328.616 60H317.025Z" fill="#EA4335"/>
<path d="M24.0725 48.2396L67.0725 17.5253L60.0015 12.4745L17.0015 43.1888L24.0725 48.2396Z" fill="#EA4335"/>
<path d="M41.0725 17.5253L24.0725 29.6682L17.0015 24.6174L34.0015 12.4745L41.0725 17.5253Z" fill="#EA4335"/>
<path d="M50.0725 48.2396L67.0725 36.0967L60.0015 31.046L43.0015 43.1888L50.0725 48.2396Z" fill="#EA4335"/>
<path fill-rule="evenodd" clip-rule="evenodd" d="M0.537109 60V0H84.5371V60H0.537109ZM10.5371 7.14286H74.5371V52.8571H10.5371V7.14286Z" fill="#EA4335"/>
</svg>
