<svg width="344" height="60" viewBox="0 0 344 60" fill="none" xmlns="http://www.w3.org/2000/svg">
<path d="M128.697 13.5293H139.036V46.2772H128.697V13.5293Z" fill="#7828C8"/>
<path d="M173.261 21.0145C178.616 21.0145 182.911 21.9346 186.145 23.7747C189.379 25.6148 190.996 28.3438 190.996 31.9617V46.2772H181.055V32.7102C181.055 30.527 180.18 28.8896 178.431 27.798C176.681 26.6752 174.189 26.1138 170.955 26.1138C167.296 26.1138 164.407 26.7688 162.286 28.0787C160.165 29.3575 159.105 31.2132 159.105 33.6459V46.2772H149.163V21.2952H158.628V24.5232C160.271 23.3693 162.339 22.496 164.831 21.9034C167.323 21.3108 170.133 21.0145 173.261 21.0145Z" fill="#7828C8"/>
<path d="M238.62 21.2952L220.407 46.2772H210.148L191.935 21.2952H202.274L215.476 39.8212L229.076 21.2952H238.62Z" fill="#7828C8"/>
<path d="M279.616 33.9266C279.616 34.332 279.563 34.909 279.457 35.6575H246.134C246.717 37.4976 248.228 38.9635 250.667 40.0551C253.159 41.1155 256.234 41.6457 259.892 41.6457C264.558 41.6457 268.402 40.7412 271.424 38.9323L276.753 42.5346C274.844 43.8757 272.432 44.8893 269.516 45.5755C266.599 46.2616 263.312 46.6047 259.654 46.6047C254.988 46.6047 250.879 46.0589 247.327 44.9673C243.774 43.8757 241.017 42.3631 239.055 40.4294C237.147 38.4645 236.192 36.2501 236.192 33.7862C236.192 31.3535 237.12 29.1703 238.976 27.2366C240.885 25.2718 243.509 23.7435 246.849 22.6519C250.19 21.5603 253.954 21.0145 258.143 21.0145C262.278 21.0145 265.963 21.5603 269.197 22.6519C272.485 23.7123 275.03 25.225 276.832 27.1899C278.688 29.1235 279.616 31.3691 279.616 33.9266ZM258.143 25.6928C254.961 25.6928 252.257 26.2542 250.031 27.377C247.857 28.4686 246.531 29.9344 246.054 31.7746H270.152C269.728 29.9656 268.429 28.4998 266.255 27.377C264.081 26.2542 261.377 25.6928 258.143 25.6928Z" fill="#7828C8"/>
<path d="M294.653 24.9443C297.516 22.3244 302.553 21.4824 309.764 21.4824V26.1606C308.915 26.0671 308.147 26.0203 307.457 26.0203C303.587 26.0203 300.565 27.1119 298.391 28.453C296.217 29.7629 295.13 31.6654 295.13 34.1605V46.2772H285.189V21.2952H294.653V24.9443Z" fill="#7828C8"/>
<path d="M343.303 44.9205C342.137 45.4819 340.705 45.9029 339.009 46.1836C337.365 46.4643 335.615 46.6047 333.759 46.6047C329.094 46.6047 325.488 45.8874 322.943 44.4527C320.398 43.018 319.126 40.9284 319.126 38.1838V26.1606H312.127V21.4824H319.126V15.7749H329.067V21.4824H340.44V26.1606H329.067V38.0434C329.067 39.2598 329.571 40.1954 330.578 40.8504C331.586 41.4742 333.044 41.7861 334.952 41.7861C337.179 41.7861 339.035 41.443 340.52 40.7568L343.303 44.9205Z" fill="#7828C8"/>
<path fill-rule="evenodd" clip-rule="evenodd" d="M102.697 30C102.697 46.5685 79.8638 60 51.6973 60C23.5307 60 0.697266 46.5685 0.697266 30C0.697266 13.4315 23.5307 0 51.6973 0C79.8638 0 102.697 13.4315 102.697 30ZM86.6693 30C86.6693 41.3613 71.0121 50.5715 51.6979 50.5715C50.3588 50.5715 49.0374 50.5272 47.7375 50.441C65.3134 49.3545 79.0112 40.6098 79.0112 29.9832C79.0112 19.4096 65.4497 10.6992 48.0002 9.54222C49.2153 9.46711 50.449 9.42859 51.6979 9.42859C71.0121 9.42859 86.6693 18.6387 86.6693 30ZM40.4043 44.4899C51.9307 43.2926 60.6972 37.2608 60.6972 30C60.6972 22.7392 51.9307 16.7074 40.4043 15.5101C41.799 15.3681 43.2334 15.2941 44.6972 15.2941C58.5043 15.2941 69.6972 21.8782 69.6972 30C69.6972 38.1218 58.5043 44.7059 44.6972 44.7059C43.2334 44.7059 41.799 44.6319 40.4043 44.4899Z" fill="#7828C8"/>
</svg>
